<?xml version="1.0" encoding="UTF-8"?>
<svg data-bbox="-0.5 7.5 512 496" height="512" width="512" xmlns="http://www.w3.org/2000/svg" shape-rendering="geometricPrecision" text-rendering="geometricPrecision" image-rendering="optimizeQuality" fill-rule="evenodd" clip-rule="evenodd" data-type="shape">
    <g>
        <path d="M511.5 33.5v341c-5.153 15.976-16.153 24.809-33 26.5-56.999.5-113.999.667-171 .5 2.868 40.321 24.535 57.155 65 50.5 16.462 5.832 22.628 17.332 18.5 34.5-3.763 8.765-10.263 14.265-19.5 16.5-77.333.667-154.667.667-232 0-18.296-6.426-24.463-18.926-18.5-37.5 4.045-6.778 9.878-11.278 17.5-13.5 40.465 6.655 62.132-10.179 65-50.5-57.001.167-114.001 0-171-.5-16.847-1.691-27.847-10.524-33-26.5v-341C3.837 19.669 13.17 11.169 27.5 8c152-.667 304-.667 456 0 14.329 3.169 23.663 11.669 28 25.5Zm-481-8c150-.167 300 0 450 .5 6.425 1.427 10.592 5.26 12.5 11.5.5 92.333.667 184.666.5 277h-16c.167-89.334 0-178.667-.5-268-1.227-2.226-3.061-3.726-5.5-4.5-144-.667-288-.667-432 0-1.58.706-3.08 1.54-4.5 2.5a12207.63 12207.63 0 0 0-1.5 270h-16c-.167-92.334 0-184.667.5-277 2.085-6.254 6.252-10.254 12.5-12Zm21 34h408v255h-408v-255Zm202 36a23.901 23.901 0 0 1 9 2.5 9102.675 9102.675 0 0 0 97 46c-31.665.5-63.332.667-95 .5.379-4.797-.121-9.464-1.5-14-3.338-2.818-7.171-3.651-11.5-2.5-2.167.833-3.667 2.333-4.5 4.5a420.29 420.29 0 0 0 0 41c4.551 6.971 9.884 7.638 16 2 1.367-4.2 1.867-8.533 1.5-13 31.335-.167 62.668 0 94 .5A9951.886 9951.886 0 0 0 256 211.5 20999.674 20999.674 0 0 1 132.5 153c40.424-19.214 80.758-38.381 121-57.5Zm-91 92a2393.113 2393.113 0 0 0 84 39c-.166 8.007 0 16.007.5 24 2.897 4.655 7.063 6.155 12.5 4.5 2.167-.833 3.667-2.333 4.5-4.5a287.67 287.67 0 0 1 1.5-23.5 9376.146 9376.146 0 0 0 82.5-39.5 353.238 353.238 0 0 1-.5 46l-92 46-92-46a529.904 529.904 0 0 1-1-46Zm-145 145h476c.167 13.004 0 26.004-.5 39-2.167 4.833-5.667 8.333-10.5 10.5a13028.582 13028.582 0 0 1-227 1.5c-75.702.159-151.369-.341-227-1.5-4.833-2.167-8.333-5.667-10.5-10.5a760.886 760.886 0 0 1-.5-39Zm204 69h68c.415 18.414 6.082 34.914 17 49.5-34 .667-68 .667-102 0 10.918-14.586 16.585-31.086 17-49.5Zm-80 68c76.001-.167 152.001 0 228 .5 6.902 5.416 6.569 10.416-1 15-75.333.667-150.667.667-226 0-7.65-4.747-7.983-9.914-1-15.5Z" opacity=".953"/>
        <path d="M253.5 75.5a67.512 67.512 0 0 1 18 6.5A5130.86 5130.86 0 0 1 408 147.5a1638.615 1638.615 0 0 1 2 80l16 24c1.326 10.675-3.174 14.508-13.5 11.5a471.28 471.28 0 0 1-12-15.5 115.023 115.023 0 0 0-8.5 12c-6.167 6.912-11.833 6.579-17-1-.841-3.62-.174-6.954 2-10a351.942 351.942 0 0 0 14-21c.667-20 .667-40 0-60a403.007 403.007 0 0 0-24 12l-1 63a6.978 6.978 0 0 1-2.5 3.5l-104 52a16.242 16.242 0 0 1-8 0A5209.876 5209.876 0 0 1 146 244.5a741.704 741.704 0 0 1-1.5-66 264.193 264.193 0 0 1-41.5-20c-2.303-4.538-1.803-8.705 1.5-12.5 49.758-23.548 99.424-47.048 149-70.5Zm0 20a778104.303 778104.303 0 0 0-121 57.5A20999.674 20999.674 0 0 0 256 211.5 9951.886 9951.886 0 0 1 358.5 163c-31.332-.5-62.665-.667-94-.5.367 4.467-.133 8.8-1.5 13-6.116 5.638-11.449 4.971-16-2a420.29 420.29 0 0 1 0-41c.833-2.167 2.333-3.667 4.5-4.5 4.329-1.151 8.162-.318 11.5 2.5 1.379 4.536 1.879 9.203 1.5 14 31.668.167 63.335 0 95-.5a9102.675 9102.675 0 0 1-97-46 23.901 23.901 0 0 0-9-2.5Zm-91 92a529.904 529.904 0 0 0 1 46l92 46 92-46a353.238 353.238 0 0 0 .5-46 9376.146 9376.146 0 0 1-82.5 39.5 287.67 287.67 0 0 0-1.5 23.5c-.833 2.167-2.333 3.667-4.5 4.5-5.437 1.655-9.603.155-12.5-4.5-.5-7.993-.666-15.993-.5-24a2393.113 2393.113 0 0 1-84-39Z" opacity=".942"/>
        <path d="M228.5 348.5c18.003-.167 36.003 0 54 .5 6.753 2.248 8.919 6.748 6.5 13.5l-3.5 3.5c-20 .667-40 .667-60 0-5.258-4.098-6.091-8.931-2.5-14.5a86.818 86.818 0 0 1 5.5-3Z" opacity=".933"/>
    </g>
</svg>
