<?xml version="1.0" encoding="UTF-8"?>
<svg data-bbox="-0.5 86.338 512 338.162" height="512" width="512" xmlns="http://www.w3.org/2000/svg" shape-rendering="geometricPrecision" text-rendering="geometricPrecision" image-rendering="optimizeQuality" fill-rule="evenodd" clip-rule="evenodd" data-type="shape">
    <g>
        <path d="M143.5 86.5c3.855-.655 6.688.679 8.5 4l-2 28c40.439-29.951 84.939-37.784 133.5-23.5 22 7.408 41.166 19.241 57.5 35.5 2.984 7.55.484 11.05-7.5 10.5-44.005-40.666-94.005-50-150-28a178.403 178.403 0 0 0-27 17 309.066 309.066 0 0 1 30 5c1.978 2.497 2.478 5.331 1.5 8.5a6.978 6.978 0 0 1-3.5 2.5 538.9 538.9 0 0 1-46-5 6.978 6.978 0 0 1-3.5-2.5 335.29 335.29 0 0 1 5-48c.69-1.85 1.856-3.184 3.5-4Z" opacity=".911"/>
        <path d="M511.5 176.5v10c-3.049 4.888-6.716 9.388-11 13.5 1.333 4 1.333 8 0 12 4.327 4.472 7.993 9.305 11 14.5v10c-6.616 13.359-16.783 17.026-30.5 11a13.92 13.92 0 0 1-4 3c4.145 35.354-6.188 65.687-31 91l-1 63c-1.712 10.712-7.879 17.212-18.5 19.5-30 .667-60 .667-90 0-4.343-1.01-7.51-3.51-9.5-7.5a76.4 76.4 0 0 1-1.5-20c-40.148 4.851-57.482-12.816-52-53-6.429.802-12.429-.364-18-3.5-5.894-5.356-6.394-11.189-1.5-17.5a893.819 893.819 0 0 0 19.5-30c-8.89-44.508 4.443-80.675 40-108.5 23.377-15.71 49.044-21.543 77-17.5 8.28-4.544 16.947-5.211 26-2a153.95 153.95 0 0 0 12.5-8c3.181-17.844 13.348-23.677 30.5-17.5 5.409 5.218 8.743 11.552 10 19a131.205 131.205 0 0 1 12 6.5c14.275-5.921 24.275-1.921 30 12Zm-67-26c3.507-.506 6.674.16 9.5 2a109.654 109.654 0 0 0 5.5 15.5c5.949 1.973 11.283 4.973 16 9 6.149.466 12.149-.367 18-2.5 2.799 1.474 4.466 3.808 5 7-2.575 4.082-5.742 7.749-9.5 11a11.532 11.532 0 0 0-1.5 5.5 86.047 86.047 0 0 1 .5 19.5 188.394 188.394 0 0 1 10.5 13c-.481 3.334-2.147 5.667-5 7-5.851-2.133-11.851-2.966-18-2.5a64.274 64.274 0 0 1-16 9.5 144.828 144.828 0 0 0-6 16c-3 1.333-6 1.333-9 0a110.817 110.817 0 0 1-4.5-14c-2.626-2.731-5.793-4.564-9.5-5.5l-8-6c-6.758.027-13.425.694-20 2a28.834 28.834 0 0 0-4-6 85.365 85.365 0 0 1 10.5-11.5 9.62 9.62 0 0 0 1.5-4.5 87.489 87.489 0 0 1-.5-20.5 124.77 124.77 0 0 1-10-11c-.559-3.879.774-6.879 4-9 5.984 2.332 12.15 3.165 18.5 2.5a110.707 110.707 0 0 1 17-10.5l5-16Zm-83 28h25c-.351 8.299 2.815 14.965 9.5 20 .667 5 .667 10 0 15-14.132 12.554-13.632 24.387 1.5 35.5 6.615 1.486 13.115.986 19.5-1.5a114.996 114.996 0 0 0 12 8c2.633 16.621 12.133 22.787 28.5 18.5a25.55 25.55 0 0 0 6.5-5.5c.146 19.228-5.52 36.561-17 52l-14 16c-.03 23.396-.697 46.73-2 70-1.637 2.31-3.804 3.81-6.5 4.5-28.333.667-56.667.667-85 0a287.67 287.67 0 0 1-1.5-23.5 9.454 9.454 0 0 0-1.5-2.5 325.63 325.63 0 0 0-35-2c-7.944-2.277-12.778-7.444-14.5-15.5l-1-34a6.978 6.978 0 0 0-3.5-2.5c-5.696-.17-11.362-.67-17-1.5a1008.99 1008.99 0 0 0 20.5-32c-8.869-38.048.631-70.548 28.5-97.5 13.902-11.129 29.569-18.296 47-21.5Zm83 5c21.804.963 29.971 11.963 24.5 33-8.353 12.13-19.187 14.964-32.5 8.5-12.969-12.016-13.303-24.35-1-37a56.846 56.846 0 0 1 9-4.5Z" opacity=".913"/>
        <path d="M-.5 280.5v-27c7.177-40.147 29.843-67.647 68-82.5 42.477-12.909 79.644-4.076 111.5 26.5 23.877 27.338 32.043 58.838 24.5 94.5a1042.654 1042.654 0 0 0 16.5 25.5c10.46 18.412 4.96 27.079-16.5 26 5.468 40.198-11.866 57.865-52 53a76.4 76.4 0 0 1-1.5 20c-1.99 3.99-5.157 6.49-9.5 7.5-30 .667-60 .667-90 0-10.167-2.167-16.333-8.333-18.5-18.5l-1-64c-16.875-17.085-27.375-37.419-31.5-61Zm102-103c40.024 1.916 68.524 20.916 85.5 57 4.394 10.91 6.561 22.244 6.5 34-.842 9.702-1.675 19.368-2.5 29a1008.99 1008.99 0 0 0 20.5 32c-5.972.83-11.972 1.33-18 1.5l-2.5 2.5-1 33c-1.267 8.602-6.1 14.102-14.5 16.5l-33 1a9.454 9.454 0 0 0-2.5 1.5 378.232 378.232 0 0 0-2.5 25.5c-28.333.667-56.667.667-85 0-3.833-1.167-6.333-3.667-7.5-7.5l-1-67c-20.262-18.863-31.096-42.196-32.5-70 6.245-53.912 36.245-83.579 90-89Z" opacity=".913"/>
        <path d="M443.5 170.5c27.474-.026 40.974 13.64 40.5 41-3.167 16.5-13 26.333-29.5 29.5-21.264 1.457-34.764-8.043-40.5-28.5-1.581-22.222 8.252-36.222 29.5-42Zm1 13a56.846 56.846 0 0 0-9 4.5c-12.303 12.65-11.969 24.984 1 37 13.313 6.464 24.147 3.63 32.5-8.5 5.471-21.037-2.696-32.037-24.5-33Z" opacity=".905"/>
    </g>
</svg>
