<?xml version="1.0" encoding="UTF-8"?>
<svg data-bbox="7.485 14.5 496.015 482" height="512" width="512" xmlns="http://www.w3.org/2000/svg" shape-rendering="geometricPrecision" text-rendering="geometricPrecision" image-rendering="optimizeQuality" fill-rule="evenodd" clip-rule="evenodd" data-type="color">
    <g>
        <path d="M251.5 362.5c.536-3.198-.131-5.865-2-8-6.607-.435-11.107-3.768-13.5-10 2.334-23.663-2.999-45.33-16-65a89.009 89.009 0 0 1-4.5-18c-9.216-4.762-15.382-12.095-18.5-22a618.687 618.687 0 0 1-1.5-59 24.935 24.935 0 0 0-7 .5L171 202.5l-1 276c-2.913 5.189-7.08 6.356-12.5 3.5a14.444 14.444 0 0 1-2.5-5.5c-.514-93.336-.181-186.669 1-280a553.483 553.483 0 0 1 25.5-30.5 1076.03 1076.03 0 0 1 64-2 1795.187 1795.187 0 0 1 45-35c3.069-3.185 3.569-6.685 1.5-10.5-3.453-3.269-7.286-3.769-11.5-1.5a769.087 769.087 0 0 1-42 32l-181 1c-12.702 1.596-22.868 7.429-30.5 17.5a35.724 35.724 0 0 0-3 9c-.667 35-.667 70 0 105 3.839 12.836 12.339 20.502 25.5 23a8320.3 8320.3 0 0 1 .5-129c5.11-5.385 9.777-5.052 14 1 .667 101 .667 202 0 303-3.705 4.482-8.038 5.149-13 2a22.956 22.956 0 0 1-2-5c-.5-51.999-.667-103.999-.5-156-20.11-3.3-33.276-14.633-39.5-34A449.347 449.347 0 0 1 7.5 246 3830.59 3830.59 0 0 1 9 171.5c4.545-15.549 14.378-26.382 29.5-32.5 14.604-4.736 29.604-6.736 45-6-12.846-11.185-20.346-25.352-22.5-42.5-3.285-43.048 16.549-63.214 59.5-60.5 20.713 3.713 33.213 15.88 37.5 36.5 4.761 26.15-2.405 48.318-21.5 66.5 19.664.5 39.331.667 59 .5a3958.7 3958.7 0 0 1 .5-89c3.724-15.39 13.224-25.224 28.5-29.5 83-.667 166-.667 249 0 17.156 4.157 26.99 14.99 29.5 32.5.667 61.667.667 123.333 0 185-3.269 17.27-13.436 28.103-30.5 32.5-48.666.5-97.332.667-146 .5a48.813 48.813 0 0 1-4.5 16c-5.322 7.668-9.322 16.001-12 25a696.688 696.688 0 0 0-4 40c-2.943 4.974-7.276 7.974-13 9 .41 9.359-3.423 16.192-11.5 20.5a100.2 100.2 0 0 1-20 0c-6.281-2.431-9.614-6.931-10-13.5Zm-22-333c80.001-.167 160.001 0 240 .5 7.458 1.64 12.958 5.806 16.5 12.5a4597.118 4597.118 0 0 1 1 191c-2.435 7.434-7.268 12.601-14.5 15.5-48.999.5-97.999.667-147 .5-6.582-28.573-24.582-43.906-54-46-25.874 1.877-43.541 14.877-53 39-.502 1.021-1.168 1.188-2 .5-2.99-3.628-4.823-7.795-5.5-12.5-.5-16.663-.667-33.33-.5-50 11.671.167 23.338 0 35-.5a32.473 32.473 0 0 0 10-4l46-36c9.824-12.601 9.157-24.601-2-36-9.333-6-18.667-6-28 0l-37 29c-7.993.5-15.993.666-24 .5-.167-28.002 0-56.002.5-84 1.897-10.727 8.063-17.393 18.5-20Zm-126 15c9.585-.916 18.585.917 27 5.5 6.816 5.117 10.983 11.95 12.5 20.5 3.504 21.113-2.663 38.613-18.5 52.5-16.136 7.84-29.303 4.34-39.5-10.5-11.239-18.747-11.906-37.747-2-57 5.606-6.14 12.44-9.807 20.5-11Zm291 27a25.87 25.87 0 0 1 10 1 35.147 35.147 0 0 0 5 10 129.682 129.682 0 0 1 22 9.5c4.193-.228 8.193-1.395 12-3.5a55.05 55.05 0 0 1 6.5 6c.257 2.517-.41 4.85-2 7a16.242 16.242 0 0 0 0 8 88.005 88.005 0 0 1 8.5 20c2.912 2.421 6.245 4.088 10 5 1.291 3.545 1.291 7.045 0 10.5a31.65 31.65 0 0 0-10.5 5.5 91.805 91.805 0 0 1-8 20c-.362 5.208.305 10.208 2 15a55.05 55.05 0 0 1-6.5 6c-3.973-2.716-8.306-3.883-13-3.5a102.52 102.52 0 0 1-21 9 32.681 32.681 0 0 0-5 10 25.238 25.238 0 0 1-10 0c-1.336-4.348-3.669-8.014-7-11a91.945 91.945 0 0 1-20-8c-4.486-.185-8.653.981-12.5 3.5l-7.5-7.5c3.393-3.944 4.559-8.444 3.5-13.5a102.52 102.52 0 0 1-9-21c-3.168-2.222-6.668-3.556-10.5-4a31.116 31.116 0 0 1 1-11c4.038-1.101 7.538-3.101 10.5-6a91.945 91.945 0 0 1 8-20 126.772 126.772 0 0 0-2-15 21.368 21.368 0 0 1 6-5 64.809 64.809 0 0 0 10 4 197.96 197.96 0 0 1 21.5-8.5 11.529 11.529 0 0 0 4.5-3.5c1.183-3.026 2.349-6.026 3.5-9Zm2 40c21.109.941 31.276 11.941 30.5 33-4.795 17.654-16.295 25.154-34.5 22.5-15.859-5.538-22.692-16.704-20.5-33.5 3.65-12.489 11.817-19.822 24.5-22Zm-133 108c28.423-1.577 44.423 11.756 48 40a98.305 98.305 0 0 0-1.5 9 429.204 429.204 0 0 1-12 25 122.082 122.082 0 0 0-5.5 20 294.542 294.542 0 0 1-42 .5 115.745 115.745 0 0 0-5.5-20.5l-12-24c-3.83-25.358 6.337-42.025 30.5-50Zm-13 111h42c.239 1.967-.094 3.801-1 5.5a400.05 400.05 0 0 1-40 0c-.906-1.699-1.239-3.533-1-5.5Zm17 24a32.462 32.462 0 0 1 8 .5c.923 2.041 1.256 4.208 1 6.5h-10c-.202-2.45.131-4.783 1-7Z" fill="#252323" data-color="1"/>
        <path d="M385.5 56.5c9.006-.166 18.006 0 27 .5a6.977 6.977 0 0 1 3.5 2.5 147.608 147.608 0 0 0 4.5 10.5c4.58 1.638 9.08 3.471 13.5 5.5 4.84-2.85 10.006-4.016 15.5-3.5L467 89.5a16.242 16.242 0 0 1 0 8 42.638 42.638 0 0 0-3.5 8 104.84 104.84 0 0 1 5.5 13 101.453 101.453 0 0 0 10.5 4.5 6.978 6.978 0 0 1 2.5 3.5c.667 9 .667 18 0 27a9.454 9.454 0 0 1-1.5 2.5 125.693 125.693 0 0 0-11.5 5.5l-5.5 13c3.876 5.298 4.709 10.965 2.5 17a203.814 203.814 0 0 1-17.5 16.5c-1.667.667-3.333.667-5 0a111.984 111.984 0 0 0-9.5-3.5 202.075 202.075 0 0 1-12.5 4.5 42.17 42.17 0 0 0-5.5 11.5 6.978 6.978 0 0 1-3.5 2.5c-8.667.667-17.333.667-26 0a6.978 6.978 0 0 1-3.5-2.5 189.663 189.663 0 0 1-4.5-10 65.307 65.307 0 0 0-14-6 235.165 235.165 0 0 1-11.5 4 9.62 9.62 0 0 1-4.5-1.5 228.489 228.489 0 0 1-17.5-18.5c.165-5.185 1.665-10.018 4.5-14.5a41.986 41.986 0 0 1-5.5-12.5 34.399 34.399 0 0 0-10.5-4.5c-1.987-1.319-3.154-3.152-3.5-5.5-.667-8-.667-16 0-24a11.532 11.532 0 0 1 3.5-4.5 67.45 67.45 0 0 0 10-4.5 113.815 113.815 0 0 1 6-13.5c-4.73-5.445-5.563-11.278-2.5-17.5A180.476 180.476 0 0 1 349.5 72a12.5 12.5 0 0 1 7 0 33.471 33.471 0 0 0 8.5 3.5 133.386 133.386 0 0 1 12-5 136.348 136.348 0 0 1 8.5-14Zm9 15a2758.762 2758.762 0 0 1-3.5 9 11.529 11.529 0 0 1-4.5 3.5 197.96 197.96 0 0 0-21.5 8.5 64.809 64.809 0 0 1-10-4 21.368 21.368 0 0 0-6 5c.963 4.94 1.629 9.94 2 15a91.945 91.945 0 0 0-8 20c-2.962 2.899-6.462 4.899-10.5 6a31.116 31.116 0 0 0-1 11c3.832.444 7.332 1.778 10.5 4a102.52 102.52 0 0 0 9 21c1.059 5.056-.107 9.556-3.5 13.5l7.5 7.5c3.847-2.519 8.014-3.685 12.5-3.5a91.945 91.945 0 0 0 20 8c3.331 2.986 5.664 6.652 7 11 3.333.667 6.667.667 10 0a32.681 32.681 0 0 1 5-10 102.52 102.52 0 0 0 21-9c4.694-.383 9.027.784 13 3.5a55.05 55.05 0 0 0 6.5-6c-1.695-4.792-2.362-9.792-2-15a91.805 91.805 0 0 0 8-20 31.65 31.65 0 0 1 10.5-5.5c1.291-3.455 1.291-6.955 0-10.5-3.755-.912-7.088-2.579-10-5a88.005 88.005 0 0 0-8.5-20 16.242 16.242 0 0 1 0-8c1.59-2.15 2.257-4.483 2-7a55.05 55.05 0 0 0-6.5-6c-3.807 2.105-7.807 3.272-12 3.5a129.682 129.682 0 0 0-22-9.5 35.147 35.147 0 0 1-5-10 25.87 25.87 0 0 0-10-1Zm2 40c-12.683 2.178-20.85 9.511-24.5 22-2.192 16.796 4.641 27.962 20.5 33.5 18.205 2.654 29.705-4.846 34.5-22.5.776-21.059-9.391-32.059-30.5-33Z" fill="#242222" data-color="2"/>
        <path d="M391.5 96.5c26.514-2.013 43.348 9.654 50.5 35 2.805 25.237-7.695 42.07-31.5 50.5-27.222 4.317-45.055-6.517-53.5-32.5-3.524-27.613 7.976-45.279 34.5-53Zm5 15c-12.683 2.178-20.85 9.511-24.5 22-2.192 16.796 4.641 27.962 20.5 33.5 18.205 2.654 29.705-4.846 34.5-22.5.776-21.059-9.391-32.059-30.5-33Z" fill="#242222" data-color="2"/>
        <path d="M105.5 313.5c4.96-.44 8.46 1.56 10.5 6a3492.514 3492.514 0 0 1 1 156c-1.628 6.731-5.795 9.231-12.5 7.5a11.532 11.532 0 0 1-3.5-4.5 6397.052 6397.052 0 0 1 0-160c1.025-2.187 2.525-3.854 4.5-5Z" fill="#272525" data-color="3"/>
        <path d="M249.5 354.5c1.869 2.135 2.536 4.802 2 8a99.97 99.97 0 0 1-2-8Z" fill="#5d5b5b" opacity=".184" data-color="4"/>
        <path d="M250.5 389.5c23.172-1.484 36.506 9.182 40 32-.664 8.16-3.664 15.327-9 21.5 9.923 5.204 18.089 12.371 24.5 21.5 6.097-9.266 13.931-16.6 23.5-22-10.476-13.836-10.643-27.836-.5-42 12.57-12.066 26.737-14.233 42.5-6.5 13.399 10.198 17.566 23.365 12.5 39.5a31 31 0 0 1-5.5 9c8.863 5.024 16.363 11.691 22.5 20 5.947-8.28 13.447-14.78 22.5-19.5-7.262-8.548-9.762-18.381-7.5-29.5 7.308-20.239 21.475-27.739 42.5-22.5 18.603 9.13 24.77 23.63 18.5 43.5a35.978 35.978 0 0 1-5.5 8.5c19.702 10.248 30.202 26.415 31.5 48.5-.833 2.167-2.333 3.667-4.5 4.5-97.333.667-194.667.667-292 0-3.098-1.268-4.765-3.601-5-7 2.832-20.825 13.499-36.158 32-46-11.686-16.765-10.353-32.432 4-47 4.157-2.745 8.49-4.912 13-6.5Zm4 15c11.576-.089 18.243 5.578 20 17-1.222 9.724-6.722 15.39-16.5 17-15.438-3.278-20.105-12.278-14-27 2.998-3.238 6.498-5.571 10.5-7Zm96 0c17.052 1.102 22.885 9.768 17.5 26-6.692 7.969-14.526 9.469-23.5 4.5-7.9-7.141-9.066-15.308-3.5-24.5 2.843-2.663 6.009-4.663 9.5-6Zm93 0c15.461.282 21.961 7.949 19.5 23-6.114 10.557-14.614 13.057-25.5 7.5-10.729-12.744-8.729-22.911 6-30.5Zm-191 49c15.741-.812 28.575 4.854 38.5 17 2.575 3.226 4.075 6.893 4.5 11-25.342.333-50.675 0-76-1 6.217-14.93 17.217-23.93 33-27Zm138 24v4c-25.009.333-50.009 0-75-1 9.656-21.163 25.99-29.663 49-25.5 12.198 3.574 20.864 11.074 26 22.5Zm51-24c20.815-1.102 35.482 7.731 44 26.5l-1 1c-24.998.5-49.998.667-75 .5 5.388-15.39 16.055-24.723 32-28Z" fill="#242222" data-color="2"/>
        <path d="M390.5 477.5c.891.761 1.558 1.761 2 3-.457.798-1.124 1.131-2 1v-4Z" fill="#447095" opacity=".424" data-color="5"/>
    </g>
</svg>
