<?xml version="1.0" encoding="UTF-8"?>
<svg data-bbox="20.363 20.269 470.274 470.231" height="512" width="512" xmlns="http://www.w3.org/2000/svg" shape-rendering="geometricPrecision" text-rendering="geometricPrecision" image-rendering="optimizeQuality" fill-rule="evenodd" clip-rule="evenodd" data-type="shape">
    <g>
        <path d="M163.5 20.5c4.103-.73 7.603.27 10.5 3a313 313 0 0 1 .5 25c5.843-.825 10.343 1.175 13.5 6a681.917 681.917 0 0 1 4 38 888.234 888.234 0 0 1 38 33c1.992 5.837.158 9.671-5.5 11.5-38 .667-76 .667-114 0-5.658-1.829-7.492-5.663-5.5-11.5a888.234 888.234 0 0 1 38-33 908.616 908.616 0 0 1 4-38c3.194-4.846 7.694-6.846 13.5-6a313 313 0 0 1 .5-25 10.526 10.526 0 0 0 2.5-3Zm-3 42h14a510.448 510.448 0 0 0 2 26h-18a510.448 510.448 0 0 0 2-26Zm-7 40c9.339-.166 18.673 0 28 .5a296.363 296.363 0 0 0 22 19c-24 .667-48 .667-72 0a204.671 204.671 0 0 0 22-19.5Z" opacity=".94"/>
        <path d="M339.5 20.5c4.103-.73 7.603.27 10.5 3a313 313 0 0 1 .5 25c5.843-.825 10.343 1.175 13.5 6a681.917 681.917 0 0 1 4 38 888.234 888.234 0 0 1 38 33c1.992 5.837.158 9.671-5.5 11.5-38 .667-76 .667-114 0-5.658-1.829-7.492-5.663-5.5-11.5a888.234 888.234 0 0 1 38-33 681.917 681.917 0 0 1 4-38c3.194-4.846 7.694-6.846 13.5-6a313 313 0 0 1 .5-25 10.526 10.526 0 0 0 2.5-3Zm-3 42h14a510.448 510.448 0 0 0 2 26h-18a510.448 510.448 0 0 0 2-26Zm-7 40c9.339-.166 18.673 0 28 .5a296.363 296.363 0 0 0 22 19c-24 .667-48 .667-72 0a204.671 204.671 0 0 0 22-19.5Z" opacity=".939"/>
        <path d="M119.5 187.5c32.002-.167 64.002 0 96 .5 9.167 2.5 15 8.333 17.5 17.5a1951.932 1951.932 0 0 1 12 54c7 1.333 14 1.333 21 0a1951.932 1951.932 0 0 1 12-54c2.5-9.167 8.333-15 17.5-17.5 33.061-.979 66.061-.645 99 1 6.5 2.5 11 7 13.5 13.5a2382.945 2382.945 0 0 1 13.5 57.5l66 1 2.5 2.5a400.05 400.05 0 0 1 0 40l-2.5 2.5c-5.323.499-10.656.666-16 .5a34593.422 34593.422 0 0 0 19 174c.528 3.761-.472 6.927-3 9.5-9.333.667-18.667.667-28 0a6.978 6.978 0 0 1-2.5-3.5 50797.542 50797.542 0 0 1-31.5-180h-7a2432.702 2432.702 0 0 1-8.5 58c-2.323 9.656-8.157 16.156-17.5 19.5-9.994.5-19.994.666-30 .5v92a840.27 840.27 0 0 1 41 .5c4 4.333 4 8.667 0 13-40 .667-80 .667-120 0-4-4.333-4-8.667 0-13a840.27 840.27 0 0 1 41-.5v-92c-10.006.166-20.006 0-30-.5-9.343-3.344-15.177-9.844-17.5-19.5a2432.702 2432.702 0 0 1-8.5-58h-26a2432.702 2432.702 0 0 1-8.5 58c-2.323 9.656-8.157 16.156-17.5 19.5-9.994.5-19.994.666-30 .5v92a840.27 840.27 0 0 1 41 .5c4 4.333 4 8.667 0 13-40 .667-80 .667-120 0-4-4.333-4-8.667 0-13a840.27 840.27 0 0 1 41-.5v-92c-10.006.166-20.006 0-30-.5-9.343-3.344-15.177-9.844-17.5-19.5a2430.66 2430.66 0 0 1-8.5-58h-7a50889.049 50889.049 0 0 1-31.5 180 6.977 6.977 0 0 1-2.5 3.5c-9.333.667-18.667.667-28 0-2.528-2.573-3.528-5.739-3-9.5a34663.457 34663.457 0 0 0 19-174 128.508 128.508 0 0 1-16-.5l-2.5-2.5a400.23 400.23 0 0 1 0-40l2.5-2.5 66-1a2387.708 2387.708 0 0 1 13.5-57.5c3.19-7.657 8.69-12.657 16.5-15Zm3 15c30.002-.167 60.002 0 90 .5a11.532 11.532 0 0 1 4.5 3.5 521.374 521.374 0 0 1 14.5 68.5 1929.179 1929.179 0 0 1-12.5 86.5c-1.096 5.759-4.596 8.593-10.5 8.5a1680.41 1680.41 0 0 1-82 0c-3.322-.059-6.156-1.226-8.5-3.5a66.164 66.164 0 0 1-4-17 1564.1 1564.1 0 0 1-10.5-74.5 521.374 521.374 0 0 1 14.5-68.5c1.397-1.57 2.897-2.904 4.5-4Zm176 0c30.002-.167 60.002 0 90 .5a11.532 11.532 0 0 1 4.5 3.5 521.374 521.374 0 0 1 14.5 68.5 1929.179 1929.179 0 0 1-12.5 86.5c-1.096 5.759-4.596 8.593-10.5 8.5a1680.41 1680.41 0 0 1-82 0c-3.322-.059-6.156-1.226-8.5-3.5a66.164 66.164 0 0 1-4-17 1564.1 1564.1 0 0 1-10.5-74.5 521.374 521.374 0 0 1 14.5-68.5c1.397-1.57 2.897-2.904 4.5-4Zm-264 72h54c.002 6.023.335 12.023 1 18h-55v-18Zm212 0h18c.002 6.023.335 12.023 1 18h-20c.665-5.977.998-11.977 1-18Zm176 0h54v18h-55c.665-5.977.998-11.977 1-18Zm-367 32a57.15 57.15 0 0 1 15 1 18781.797 18781.797 0 0 0-30 169 12.93 12.93 0 0 1-5-.5 117314.4 117314.4 0 0 0 20-169.5Zm385 0a62.792 62.792 0 0 1 15.5 1c6.14 56.26 12.64 112.426 19.5 168.5a12.93 12.93 0 0 1-5 .5 38122.752 38122.752 0 0 0-30-170Zm-277 78h8v92h-8v-92Zm176 0h8v92h-8v-92Z" opacity=".947"/>
    </g>
</svg>
